<?xml version="1.0" encoding="utf-8"?>
<!-- Generator: Adobe Illustrator 19.1.0, SVG Export Plug-In . SVG Version: 6.00 Build 0)  -->
<svg version="1.1" id="Calque_1" xmlns="http://www.w3.org/2000/svg" xmlns:xlink="http://www.w3.org/1999/xlink" x="0px" y="0px"
	 viewBox="-48 322.7 514.8 148.3" style="enable-background:new -48 322.7 514.8 148.3;" xml:space="preserve">
<style type="text/css">
	.st0{fill:#D7C1DF;}
	.st1{fill:#6A2990;}
	.st2{fill:#B189C1;}
</style>
<g>
	<rect x="306.4" y="447.6" class="st0" width="22.8" height="22.8"/>
	<rect x="340.7" y="447.6" class="st1" width="22.8" height="22.8"/>
	<rect x="375" y="447.6" class="st0" width="22.8" height="22.8"/>
	<rect x="409.4" y="447.6" class="st2" width="22.8" height="22.8"/>
	<rect x="443.7" y="447.6" class="st1" width="22.8" height="22.8"/>
</g>
<g>
	<path d="M-29,470.9h-0.9l-5.3-12.4l-5.3,12.4h-0.9l-6.5-18.6h3.4l3.9,12l4.8-12h0.9l5,12l4.2-12h3.2L-29,470.9z"/>
	<path d="M5.9,461.7H-7.3c0,2.1,0.6,3.8,1.8,4.9c1,1,2.4,1.5,4,1.5c1.8,0,3.4-0.5,4.6-1.6l1.4,2.3c-0.5,0.5-1.3,0.9-2.3,1.3
		c-1.3,0.5-2.7,0.7-4.3,0.7c-2.3,0-4.2-0.8-5.8-2.3c-1.8-1.7-2.7-4-2.7-6.9c0-3,0.9-5.4,2.7-7.2c1.6-1.6,3.6-2.4,5.8-2.4
		c2.6,0,4.6,0.7,6.1,2.2c1.4,1.4,2.1,3.3,2.1,5.6C6.1,460.5,6,461.1,5.9,461.7z M-2,454.7c-1.4,0-2.7,0.5-3.6,1.4
		c-0.9,0.9-1.5,2-1.6,3.3H2.9c0-1.3-0.4-2.4-1.2-3.3C0.8,455.2-0.4,454.7-2,454.7z"/>
	<path d="M22.7,469.2l-1.1,1.6h-1.7v-26h3.2v8.8c0.3-0.4,0.9-0.8,1.7-1.2c0.8-0.4,1.7-0.5,2.5-0.5c2.5,0,4.5,0.9,6.1,2.6
		c1.5,1.7,2.3,3.9,2.3,6.5c0,3-0.8,5.4-2.3,7.2c-1.6,1.7-3.7,2.6-6.3,2.6c-0.9,0-1.7-0.2-2.5-0.5C23.8,470.1,23.1,469.7,22.7,469.2z
		 M23.2,456.1v10.5c0,0.2,0.4,0.5,1.2,0.9c0.8,0.4,1.4,0.6,1.8,0.6c2.2,0,3.8-0.5,4.7-1.6c1-1.1,1.4-2.8,1.4-5.3
		c0-2.1-0.6-3.7-1.7-4.8c-1.1-1.2-2.6-1.7-4.5-1.7c-0.4,0-0.9,0.2-1.7,0.5C23.8,455.5,23.4,455.9,23.2,456.1z"/>
	<path d="M69.6,469.4l1.1-3.1c1.8,1.2,3.3,1.8,4.4,1.8c2,0,3-0.8,3-2.5c0-1.2-1-2.2-2.9-3.1c-1.5-0.7-2.5-1.2-3-1.5
		c-0.5-0.4-1-0.8-1.3-1.2c-0.4-0.4-0.7-0.9-0.9-1.4s-0.3-1-0.3-1.6c0-1.5,0.5-2.7,1.6-3.5s2.5-1.3,4.3-1.3c1.3,0,3,0.4,5,1.3l-0.9,3
		c-1.3-1-2.6-1.5-3.9-1.5c-0.8,0-1.4,0.2-1.9,0.5c-0.5,0.4-0.8,0.8-0.8,1.4c0,1.2,0.7,2,2,2.7l2.3,1.1c1.4,0.6,2.5,1.4,3.1,2.2
		s1,1.9,1,3.1c0,1.6-0.6,2.9-1.7,3.8c-1.1,0.9-2.7,1.4-4.8,1.4C73.1,470.9,71.3,470.4,69.6,469.4z"/>
	<path d="M94.1,461.4c0-2.8,0.8-5.1,2.3-6.8s3.5-2.6,6-2.6c2.6,0,4.6,0.8,6.1,2.5c1.4,1.7,2.2,4,2.2,6.9c0,2.9-0.7,5.3-2.2,6.9
		c-1.5,1.7-3.5,2.5-6,2.5c-2.6,0-4.6-0.9-6.1-2.6C94.8,466.6,94.1,464.3,94.1,461.4z M97.5,461.4c0,4.6,1.6,6.9,4.8,6.9
		c1.5,0,2.7-0.6,3.5-1.8c0.9-1.2,1.3-2.9,1.3-5c0-4.5-1.6-6.8-4.8-6.8c-1.5,0-2.6,0.6-3.5,1.8C98,457.6,97.5,459.3,97.5,461.4z"/>
	<path d="M124.7,465.4v-20.5h3.2v20c0,1,0.3,1.7,0.8,2.3c0.6,0.6,1.3,0.8,2.2,0.8v2.9C126.8,470.9,124.7,469,124.7,465.4z"/>
	<path d="M148.2,452.3v11.6c0,2.8,1.2,4.2,3.7,4.2c1.1,0,2.1-0.3,2.9-0.9c0.9-0.6,1.5-1.3,1.8-2.1v-12.8h3.2v18.2h-3.2V468
		c-0.4,0.7-1.1,1.4-2.2,2c-1.1,0.6-2.2,0.9-3.2,0.9c-2,0-3.5-0.6-4.6-1.7c-1.1-1.1-1.6-2.8-1.6-4.9v-12H148.2z"/>
	<path d="M175.8,454.9h-2.1v-2.6h2.1v-3.8l3.2-1.2v5.1h5v2.6h-5v9c0,1.5,0.3,2.6,0.8,3.3c0.5,0.6,1.3,1,2.5,1c0.8,0,1.7-0.2,2.6-0.7
		l0.5,2.9c-1.3,0.3-2.8,0.5-4.4,0.5c-1.4,0-2.7-0.5-3.6-1.6c-1-1.1-1.5-2.4-1.5-4.1v-10.4H175.8L175.8,454.9z"/>
	<path d="M200.6,470.5V455h-2.5v-2.7h5.7v18.2H200.6z M202.3,445.4c0.6,0,1,0.2,1.4,0.6c0.4,0.4,0.6,0.9,0.6,1.4
		c0,0.6-0.2,1-0.6,1.4c-0.4,0.4-0.9,0.6-1.4,0.6s-1-0.2-1.4-0.6c-0.4-0.4-0.6-0.9-0.6-1.4c0-0.6,0.2-1,0.6-1.4
		C201.3,445.6,201.8,445.4,202.3,445.4z"/>
	<path d="M218.1,461.4c0-2.8,0.8-5.1,2.3-6.8s3.5-2.6,6-2.6c2.6,0,4.6,0.8,6.1,2.5c1.4,1.7,2.2,4,2.2,6.9c0,2.9-0.7,5.3-2.2,6.9
		c-1.5,1.7-3.5,2.5-6,2.5c-2.6,0-4.6-0.9-6.1-2.6C218.8,466.6,218.1,464.3,218.1,461.4z M221.5,461.4c0,4.6,1.6,6.9,4.8,6.9
		c1.5,0,2.7-0.6,3.5-1.8c0.9-1.2,1.3-2.9,1.3-5c0-4.5-1.6-6.8-4.8-6.8c-1.5,0-2.6,0.6-3.5,1.8C222,457.6,221.5,459.3,221.5,461.4z"
		/>
	<path d="M259.7,470.5v-10.6c0-1.9-0.3-3.3-0.9-4.1s-1.6-1.2-2.9-1.2c-0.7,0-1.5,0.2-2.3,0.7c-0.8,0.4-1.4,1-1.9,1.6v13.6h-3.2
		v-18.2h2.2l1,2.3c1.1-1.8,2.8-2.7,5.2-2.7c4,0,6,2.4,6,7.3v11.3H259.7z"/>
	<path d="M276.8,469.4l1.1-3.1c1.8,1.2,3.3,1.8,4.4,1.8c2,0,3-0.8,3-2.5c0-1.2-1-2.2-2.9-3.1c-1.5-0.7-2.5-1.2-3-1.5
		c-0.5-0.4-1-0.8-1.3-1.2c-0.4-0.4-0.7-0.9-0.9-1.4c-0.2-0.5-0.3-1-0.3-1.6c0-1.5,0.5-2.7,1.6-3.5s2.5-1.3,4.3-1.3
		c1.3,0,3,0.4,5,1.3l-0.9,3c-1.3-1-2.6-1.5-3.9-1.5c-0.8,0-1.4,0.2-1.9,0.5c-0.5,0.4-0.8,0.8-0.8,1.4c0,1.2,0.7,2,2,2.7l2.3,1.1
		c1.4,0.6,2.4,1.4,3.1,2.2c0.6,0.8,1,1.9,1,3.1c0,1.6-0.6,2.9-1.7,3.8c-1.1,0.9-2.7,1.4-4.8,1.4
		C280.3,470.9,278.5,470.4,276.8,469.4z"/>
</g>
<g>
	<path class="st1" d="M-29.4,417.6H-48v-92.1c11.8-0.4,19.4-0.6,22.8-0.6c12.9,0,23.1,3.9,30.6,11.7s11.3,18.2,11.3,31.2
		C16.7,401,1.4,417.6-29.4,417.6z M-35.3,336.8v68.8c2.8,0.4,6.3,0.6,10.4,0.6c8.8,0,15.7-3.3,20.8-9.9c5-6.6,7.5-15.8,7.5-27.5
		c0-21.8-9.8-32.7-29.4-32.7C-27.1,336.2-30.2,336.4-35.3,336.8z"/>
	<path class="st1" d="M36,417.6v-57.5h-9.1v-10h21v67.5H36z M42.5,324.7c2.1,0,3.8,0.7,5.3,2.2c1.5,1.5,2.2,3.2,2.2,5.2
		c0,2.1-0.7,3.8-2.2,5.3c-1.4,1.4-3.2,2.2-5.3,2.2c-2,0-3.7-0.7-5.2-2.2c-1.4-1.4-2.2-3.2-2.2-5.3c0-2.1,0.7-3.8,2.1-5.2
		C38.7,325.4,40.4,324.7,42.5,324.7z"/>
	<path class="st1" d="M64.3,435.9l6.5-9.6c6.9,4.6,13.3,7,19.2,7c5.4,0,9.7-0.9,12.8-2.8c3.1-1.8,4.7-4.1,4.7-6.8
		c0-5.4-3.9-8-11.8-8c-1.3,0-3.8,0.3-7.3,1s-6.3,1-8.2,1c-9.5,0-14.3-3.6-14.3-10.8c0-2.2,1.1-4.2,3.3-6.1c2.2-1.8,5-3.1,8.3-3.9
		c-9.5-4.4-14.2-12.2-14.2-23.1c0-7,2.5-12.9,7.4-17.6s11-7,18.2-7c6.6,0,11.8,1.4,15.5,4.1l6-7.1l7.8,7.3l-7.2,5.4
		c3.1,4,4.6,9.2,4.6,15.6c0,6.8-2.1,12.5-6.4,17.1c-4.2,4.6-9.8,7.2-16.7,7.9l-9.9,1c-1.2,0.1-2.7,0.6-4.7,1.4S75,403.7,75,405
		c0,1.7,2,2.6,6.1,2.6c1.8,0,4.6-0.3,8.4-1c3.8-0.7,6.6-1,8.5-1c6.6,0,11.7,1.6,15.4,4.7c3.7,3.2,5.5,7.5,5.5,13.1
		c0,6.2-2.8,11.2-8.3,15s-12.5,5.7-21,5.7c-4.3,0-8.9-0.8-13.7-2.3C71.1,440.1,67.3,438.2,64.3,435.9z M89.5,358.6
		c-4.2,0-7.5,1.5-10.2,4.4c-2.6,2.9-3.9,6.5-3.9,10.7c0,4.7,1.3,8.6,3.8,11.7c2.5,3.1,6,4.6,10.3,4.6c4.2,0,7.6-1.5,10-4.5
		s3.6-6.9,3.6-11.8c0-4.2-1.3-7.7-3.9-10.7S93.4,358.6,89.5,358.6z"/>
	<path class="st1" d="M137.2,417.6v-57.5h-9.1v-10h21.1v67.5H137.2z M143.7,324.7c2.1,0,3.8,0.7,5.3,2.2s2.2,3.2,2.2,5.2
		c0,2.1-0.7,3.8-2.2,5.3c-1.4,1.4-3.2,2.2-5.3,2.2c-2,0-3.7-0.7-5.2-2.2c-1.4-1.4-2.2-3.2-2.2-5.3c0-2.1,0.7-3.8,2.1-5.2
		C139.9,325.4,141.6,324.7,143.7,324.7z"/>
	<path class="st1" d="M181.4,382.2v35.5h-12.6v-92.2c9.5-0.4,15.3-0.6,17.3-0.6c26.8,0,40.2,9,40.2,26.9c0,20.7-11.8,31.1-35.5,31.1
		C189.3,382.8,186.2,382.6,181.4,382.2z M181.4,336.8v34c5.3,0.4,8.1,0.6,8.4,0.6c15.6,0,23.4-6.1,23.4-18.4
		c0-11.2-8.3-16.8-24.9-16.8C186.6,336.2,184.3,336.4,181.4,336.8z"/>
	<path class="st1" d="M240.5,398.6v-75.9h12v73.9c0,3.6,1,6.5,3.1,8.5s4.8,3.1,8.2,3.1v10.7C248.3,418.9,240.5,412.2,240.5,398.6z"
		/>
	<path class="st1" d="M315.7,410c-4.8,6-12.1,8.9-22,8.9c-5.3,0-9.9-1.9-13.8-5.7c-3.9-3.8-5.8-8.6-5.8-14.3c0-6.8,3-12.6,9-17.3
		s13.6-7.1,22.9-7.1c2.5,0,5.4,0.6,8.6,1.7c0-11-4.9-16.5-14.7-16.5c-7.5,0-13.3,2-17.3,6.1l-5.1-10c2.3-1.9,5.4-3.4,9.4-4.8
		c4-1.3,7.9-2,11.5-2c9.8,0,16.9,2.2,21.4,6.7c4.4,4.4,6.7,11.5,6.7,21.2V401c0,5.9,1.7,9.8,5.2,11.8v5.9c-4.9,0-8.5-0.7-10.9-2
		C318.5,415.4,316.7,413.1,315.7,410z M314.6,384.8c-3.8-0.9-6.4-1.3-8-1.3c-6.1,0-11,1.6-14.8,4.6c-3.8,3.1-5.7,6.8-5.7,11
		c0,7,4.1,10.5,12.4,10.5c6.1,0,11.4-2.9,16.1-8.7V384.8z"/>
	<path class="st1" d="M396.5,355.8l-6,8.5c-1.2-1.2-3.4-2.4-6.5-3.5c-3.1-1.1-6.2-1.7-9.2-1.7c-6.6,0-11.8,2.3-15.6,6.8
		c-3.9,4.6-5.8,10.8-5.8,18.8c0,7.9,2,13.9,5.9,18.1c3.9,4.1,9.3,6.2,16.3,6.2c5.4,0,10.8-2.1,16.3-6.3l4.7,10
		c-6.4,4.2-14.4,6.3-23.9,6.3c-9.2,0-16.8-3.1-22.8-9.2c-6-6.2-9-14.5-9-25c0-10.7,3.1-19.4,9.4-25.9s14.9-9.7,25.8-9.7
		c3.5,0,7.3,0.7,11.4,2.2C391.5,352.7,394.6,354.2,396.5,355.8z"/>
	<path class="st1" d="M465.8,385.2h-48.7c0,7.9,2.2,14,6.5,18.2c3.8,3.7,8.8,5.5,14.8,5.5c6.9,0,12.6-2,17.2-6.1l5.1,8.7
		c-1.9,1.8-4.7,3.4-8.5,4.8c-4.8,1.8-10.2,2.6-16.1,2.6c-8.5,0-15.7-2.9-21.7-8.6c-6.6-6.3-9.9-14.8-9.9-25.5
		c0-11.1,3.4-20,10.2-26.7c6.1-6,13.2-9,21.5-9c9.6,0,17.2,2.7,22.6,8.1c5.3,5.2,8,12.1,8,20.7C466.7,380.5,466.4,383,465.8,385.2z
		 M436.6,359.1c-5.3,0-9.8,1.7-13.5,5.2c-3.5,3.3-5.4,7.4-5.9,12.2h37.4c0-4.8-1.5-8.9-4.5-12.1
		C446.9,360.8,442.4,359.1,436.6,359.1z"/>
</g>
</svg>
